<?xml version="1.0" standalone="no"?>
<!DOCTYPE svg PUBLIC "-//W3C//DTD SVG 20010904//EN"
 "http://www.w3.org/TR/2001/REC-SVG-20010904/DTD/svg10.dtd">
<svg version="1.0" xmlns="http://www.w3.org/2000/svg"
 width="10vw" height="10vh" viewBox="0 0 8337.000000 8337.000000"
 preserveAspectRatio="xMidYMid meet">

<g transform="translate(0.000000,8337.000000) scale(0.100000,-0.100000)"
fill="#000000" stroke="none">
<path d="M10 41685 l0 -41675 41675 0 41675 0 0 41675 0 41675 -41675 0
-41675 0 0 -41675z m83330 0 l0 -41655 -41655 0 -41655 0 0 41655 0 41655
41655 0 41655 0 0 -41655z"/>
<path d="M56780 66184 c-438 -19 -585 -27 -765 -40 -4303 -303 -8243 -1930
-12147 -5015 -1520 -1201 -3056 -2644 -4748 -4459 -821 -881 -1604 -1763
-3080 -3470 -179 -206 -388 -447 -465 -535 -77 -88 -259 -297 -405 -465 -146
-167 -305 -350 -354 -405 -49 -55 -100 -114 -115 -130 -249 -286 -840 -942
-1155 -1280 -213 -229 -809 -846 -908 -939 -45 -44 -141 -136 -213 -206 -71
-69 -168 -160 -214 -203 l-84 -76 -36 28 c-62 48 -458 322 -646 448 -1621
1080 -3112 1759 -4470 2037 -789 161 -1577 181 -2260 55 -454 -83 -855 -217
-1257 -419 -366 -184 -687 -400 -1012 -683 -112 -97 -414 -402 -512 -517 -397
-466 -713 -965 -951 -1505 -74 -168 -147 -355 -140 -361 2 -2 29 40 61 93 511
853 1307 1407 2145 1494 140 14 440 6 567 -15 711 -121 1288 -505 1761 -1172
61 -86 213 -320 213 -328 0 -1 32 -58 71 -127 175 -304 332 -632 719 -1499
306 -685 385 -856 572 -1232 368 -743 712 -1309 1139 -1878 314 -417 571 -711
951 -1085 481 -475 916 -828 1498 -1216 454 -302 820 -513 1340 -773 575 -287
1026 -477 1775 -746 2607 -938 4551 -1840 6170 -2863 396 -250 973 -649 967
-668 -6 -25 -266 -483 -402 -709 -962 -1606 -2096 -2993 -3615 -4419 -651
-612 -1504 -1308 -2300 -1876 -352 -252 -823 -570 -1125 -760 -102 -64 -184
-121 -182 -126 1 -5 -1 -8 -5 -7 -16 4 -53 -14 -48 -23 3 -5 0 -7 -7 -4 -7 3
-24 -5 -38 -16 -14 -11 -19 -18 -12 -14 6 3 12 1 12 -5 0 -7 -7 -9 -16 -6 -17
6 -104 -40 -104 -56 0 -5 -5 -6 -10 -3 -6 3 -13 -1 -16 -9 -3 -9 -10 -14 -14
-11 -4 3 -13 -1 -19 -9 -17 -20 13 -43 34 -26 8 7 12 17 8 24 -4 6 1 5 9 -2
10 -8 14 -20 11 -30 -4 -10 -8 -12 -11 -4 -2 7 -9 9 -15 5 -16 -11 -77 -12
-71 -2 2 5 12 5 22 2 15 -6 15 -5 4 10 -13 15 -16 14 -47 -6 -41 -27 -49 -50
-24 -72 10 -10 19 -27 21 -39 2 -11 13 -25 25 -31 12 -5 24 -18 27 -28 3 -13
10 -18 21 -13 9 3 13 2 10 -4 -3 -6 -16 -8 -28 -6 -12 1 -16 1 -9 -1 7 -3 9
-9 6 -15 -4 -5 4 -4 17 3 13 7 25 12 27 11 8 -6 42 -1 38 6 -3 4 5 8 17 9 63
1 69 3 63 18 -4 12 -2 13 13 6 13 -7 60 2 177 35 87 24 172 47 189 50 35 7
622 175 810 232 2331 709 4353 1637 6026 2767 l197 133 -33 -72 c-48 -105
-173 -353 -292 -581 -831 -1582 -1844 -3047 -3098 -4484 -49 -57 -89 -108 -87
-113 1 -5 -2 -7 -6 -4 -5 3 -18 -4 -28 -16 -11 -12 -13 -18 -5 -13 7 4 -11
-17 -40 -46 -107 -107 -169 -180 -163 -191 4 -6 2 -8 -4 -4 -14 8 -164 -156
-179 -197 -7 -18 -12 -26 -12 -19 -1 9 -10 7 -31 -8 -17 -12 -28 -26 -25 -31
4 -5 1 -9 -4 -9 -6 0 -11 -5 -11 -11 0 -5 4 -7 10 -4 5 3 7 0 4 -9 -3 -8 -13
-13 -22 -12 -9 2 -33 -12 -52 -31 -19 -20 -30 -33 -23 -29 6 3 13 0 16 -6 3
-10 10 -8 23 5 17 15 17 19 4 28 -12 9 -12 10 3 5 10 -3 24 -6 30 -6 8 0 8 -3
-1 -9 -9 -5 -3 -8 17 -9 23 0 31 4 30 16 0 11 -3 12 -6 5 -2 -7 -9 -13 -14
-13 -6 0 -7 5 -3 12 4 7 3 8 -4 4 -7 -4 -12 -2 -12 4 0 6 -5 8 -12 4 -7 -4 -8
-3 -4 4 4 6 13 9 21 5 8 -3 15 0 15 7 0 6 12 -2 26 -19 16 -19 35 -31 50 -31
13 0 24 -5 24 -11 0 -19 58 -69 79 -69 17 0 21 -6 21 -29 0 -16 -6 -31 -12
-34 -10 -4 -10 -7 0 -18 10 -11 12 -10 12 3 0 19 64 30 80 14 16 -16 12 -25
-9 -19 -10 3 -22 -1 -26 -8 -6 -8 -4 -10 6 -4 11 6 11 5 2 -5 -13 -15 -36 -4
-27 13 4 7 1 6 -7 -2 -11 -10 -11 -15 -1 -18 14 -6 16 -33 2 -33 -5 0 -10 5
-10 11 0 6 -7 9 -15 5 -8 -3 -15 -1 -15 4 0 6 5 10 12 10 8 0 7 5 -4 16 -8 9
-26 14 -39 12 -23 -3 -23 -3 9 -36 18 -18 32 -27 32 -21 0 8 5 7 16 -2 14 -11
18 -11 28 2 11 15 40 31 61 34 6 0 9 7 7 14 -2 8 3 11 13 8 15 -6 21 -2 51 38
15 19 15 19 4 -3 l-11 -22 32 19 c18 11 38 33 46 48 10 23 12 23 7 4 -5 -18
-3 -22 7 -16 30 17 48 38 42 49 -4 7 -1 6 7 -1 10 -9 19 -9 41 3 16 8 29 19
29 25 0 8 -4 8 -14 0 -11 -9 -16 -9 -22 0 -4 7 -3 9 4 5 6 -3 14 -2 17 4 5 8
11 7 21 -1 10 -8 14 -8 14 0 0 6 4 10 8 9 14 -5 121 65 115 75 -3 6 -1 7 6 3
6 -4 26 1 44 12 254 153 551 335 647 397 19 13 114 73 210 135 974 627 1839
1270 2665 1982 268 231 257 221 392 344 586 533 1123 1083 1591 1630 81 95
148 166 150 159 8 -35 -127 -761 -214 -1150 -116 -515 -322 -1272 -425 -1563
-11 -30 -17 -58 -14 -63 4 -5 1 -9 -5 -9 -7 0 -10 -6 -7 -14 3 -8 2 -16 -3
-18 -5 -2 -11 -16 -14 -33 -2 -16 -5 -31 -6 -32 -2 -2 -3 -6 -4 -10 -1 -5 -7
-18 -14 -31 -7 -12 -10 -27 -7 -32 3 -6 2 -10 -3 -10 -5 0 -9 -7 -9 -15 0 -11
12 -15 44 -15 24 0 43 -5 43 -11 0 -7 -18 -10 -49 -7 -45 3 -48 2 -39 -15 9
-17 18 -18 89 -12 55 5 79 4 79 -4 0 -16 -162 -15 -179 2 -10 10 -11 8 -5 -7
5 -14 4 -17 -5 -11 -10 6 -11 3 -2 -13 15 -28 14 -32 -6 -26 -11 4 -14 2 -8
-3 6 -4 13 -12 17 -17 4 -5 12 3 17 18 10 25 13 26 91 26 47 0 80 4 80 10 0 6
33 10 80 10 64 0 80 -3 80 -15 0 -11 11 -15 40 -15 29 0 40 -4 40 -15 0 -11
11 -15 40 -15 22 0 40 -4 40 -10 0 -6 33 -10 80 -10 64 0 80 -3 80 -15 0 -11
11 -15 40 -15 29 0 40 -4 40 -15 0 -11 11 -15 40 -15 22 0 40 -4 40 -10 0 -6
33 -10 80 -10 64 0 80 -3 80 -15 0 -11 11 -15 40 -15 29 0 40 -4 40 -15 0 -11
11 -15 40 -15 22 0 40 -4 40 -10 0 -5 37 -10 83 -12 57 -2 81 -7 80 -15 -2 -7
6 -10 18 -8 32 6 49 -15 30 -36 -8 -10 -18 -16 -23 -13 -4 3 -8 0 -8 -7 0 -7
-2 -10 -5 -7 -3 3 -2 13 1 22 5 12 9 14 14 6 5 -8 9 -7 13 5 5 10 3 14 -5 9
-7 -5 -8 -3 -3 6 6 10 4 10 -11 2 -14 -8 -19 -22 -19 -55 0 -25 3 -43 8 -40 4
2 6 12 5 21 -2 9 2 17 9 17 15 0 54 50 46 59 -13 12 -11 33 3 33 10 0 11 -4 3
-14 -8 -9 -8 -13 -1 -13 12 0 62 61 62 75 0 4 -8 0 -19 -9 -18 -16 -18 -16
-13 10 3 19 1 25 -7 20 -6 -4 -9 -11 -6 -16 3 -5 2 -11 -3 -14 -4 -2 -8 5 -8
18 0 16 6 22 22 22 13 0 20 -5 17 -12 -8 -21 26 -9 43 14 8 12 12 22 8 22 -3
0 2 8 13 18 10 9 14 15 8 12 -6 -3 -3 3 8 12 10 10 16 21 13 26 -2 4 0 14 6
22 8 12 9 12 4 -2 -3 -10 -3 -18 -1 -18 7 0 317 470 415 630 274 445 437 736
667 1185 l174 340 -5 -275 c-14 -658 -90 -1277 -242 -1970 -206 -940 -584
-2032 -1036 -2995 -109 -232 -128 -275 -123 -275 7 0 244 305 398 512 1385
1861 2324 3970 2792 6270 353 1734 441 3543 264 5473 -219 2401 -883 4976
-1849 7175 l-69 155 -16 170 c-79 833 -238 1765 -416 2434 -16 62 -28 115 -26
117 4 4 25 -28 339 -529 1615 -2576 2975 -5205 3463 -6693 35 -105 65 -199 67
-210 8 -33 15 0 52 256 181 1237 255 2270 243 3395 -6 529 -15 770 -42 1120
-129 1647 -486 3096 -1092 4425 -77 169 -247 510 -327 658 -25 45 -40 80 -33
76 43 -26 729 -555 1157 -893 616 -487 1388 -1121 1905 -1565 1216 -1045 2035
-1797 2989 -2748 231 -229 424 -414 429 -411 6 4 7 1 2 -6 -9 -15 144 -173
158 -164 6 3 7 2 4 -3 -3 -5 43 -61 103 -124 89 -94 111 -112 120 -100 8 12
10 11 10 -8 0 -13 -4 -20 -10 -17 -27 17 -5 -8 33 -37 24 -18 42 -38 40 -43
-2 -6 6 -11 17 -12 17 -2 15 4 -15 33 -19 19 -40 34 -45 34 -5 0 -11 4 -14 9
-9 14 37 0 59 -18 19 -16 19 -15 4 9 -9 14 -25 26 -37 28 -15 2 -18 8 -14 24
3 11 -1 24 -9 29 -8 5 -9 9 -4 9 6 0 11 14 12 30 1 17 -2 30 -7 30 -15 0 -12
50 4 66 18 17 63 18 69 2 2 -8 8 -9 13 -4 5 5 4 11 -3 13 -17 6 -16 68 1 82
10 9 16 8 26 -4 7 -8 23 -15 36 -15 28 0 33 33 9 60 -14 15 -14 18 0 30 10 8
15 9 15 1 0 -6 17 -11 40 -11 l40 0 0 -40 c0 -33 -3 -40 -20 -40 -13 0 -20 -7
-20 -20 0 -13 -7 -20 -20 -20 -16 0 -20 -7 -20 -37 0 -35 0 -36 20 -18 11 10
20 26 20 37 0 11 7 18 18 18 22 0 49 27 54 55 2 11 13 24 26 30 12 5 22 15 22
22 0 7 6 13 14 13 7 0 16 9 19 21 3 11 15 23 26 26 12 3 21 12 21 19 0 8 5 14
10 14 6 0 10 14 10 30 0 27 3 30 30 30 17 0 30 5 30 10 0 15 -49 12 -66 -4 -8
-8 -14 -26 -14 -40 0 -24 -4 -26 -40 -26 l-40 0 0 -40 0 -40 -40 0 -40 0 0 40
c0 31 -4 40 -17 40 -15 0 -15 1 0 18 10 10 17 28 17 40 0 19 6 22 40 22 l40 0
0 40 c0 42 7 46 63 41 13 -2 17 5 17 32 0 49 78 127 126 127 l34 0 0 50 c0 49
1 50 30 50 17 0 30 -4 30 -10 0 -14 27 -12 33 3 3 7 6 6 6 -5 1 -9 -3 -19 -9
-23 -5 -3 -2 -14 8 -26 15 -17 18 -18 28 -4 10 14 12 12 10 -9 0 -15 -6 -26
-12 -26 -15 0 -44 -33 -44 -50 0 -17 59 38 70 65 4 11 1 34 -7 53 -7 18 -11
37 -8 42 4 6 1 10 -5 10 -7 0 -9 8 -5 19 3 11 1 22 -5 26 -20 13 -23 -4 -6
-44 11 -28 13 -47 6 -63 -9 -23 -9 -23 -8 2 1 14 -6 47 -15 73 -20 58 -21 62
-4 79 12 11 9 29 -12 106 -15 51 -29 90 -33 87 -3 -3 -3 6 0 21 3 19 1 25 -6
20 -8 -4 -10 -2 -6 8 5 13 -30 147 -44 171 -3 5 -7 16 -7 25 -5 56 -239 780
-378 1170 -320 898 -766 1868 -1207 2625 -620 1063 -1269 1910 -2078 2708
-116 114 -207 207 -203 207 7 0 523 -200 936 -363 537 -211 1505 -613 2150
-892 2499 -1081 4901 -2297 6380 -3228 105 -66 196 -120 203 -120 6 0 10 -2 8
-5 -6 -6 236 -165 252 -165 6 0 10 -3 7 -5 -8 -9 48 -41 58 -35 6 3 7 2 4 -4
-7 -11 72 -60 88 -54 6 1 7 -1 3 -5 -10 -9 69 -67 81 -60 5 4 13 1 17 -5 4 -8
3 -9 -4 -5 -7 4 -12 5 -12 3 0 -2 21 -19 48 -37 26 -19 41 -27 35 -19 -10 13
-10 16 2 16 8 0 12 -4 9 -8 -6 -10 57 -69 73 -69 7 0 16 -6 20 -12 4 -7 16
-19 25 -26 15 -12 17 -11 13 7 -2 12 0 19 6 16 5 -4 7 -11 4 -16 -9 -14 87
-97 107 -92 4 2 7 -2 5 -8 -2 -14 51 -31 67 -22 6 4 5 0 -2 -9 -9 -11 -10 -18
-2 -23 5 -3 10 -3 10 1 0 3 9 -4 21 -17 21 -25 -75 175 -98 202 -8 9 -15 25
-18 35 -5 26 -44 105 -60 124 -8 8 -14 20 -14 25 -3 26 -13 45 -23 39 -7 -4
-8 -2 -4 5 4 6 3 17 -2 24 -5 7 -47 84 -92 172 -203 393 -574 1051 -847 1505
-639 1062 -1333 2044 -2062 2920 -80 96 -148 177 -151 180 -3 3 -34 39 -69 80
-339 399 -922 1009 -1331 1390 -653 609 -1309 1131 -2002 1594 -108 72 -196
132 -194 133 3 4 762 -178 1241 -297 651 -162 1909 -496 2203 -585 29 -9 57
-13 62 -10 6 3 10 2 10 -2 0 -7 138 -51 180 -56 8 -2 21 -6 28 -11 7 -4 29 -8
47 -9 19 0 32 -5 29 -9 -3 -4 2 -9 10 -9 18 -2 17 -1 74 -18 23 -6 48 -9 54
-5 7 4 8 3 4 -4 -10 -16 7 -15 23 1 10 10 11 9 6 -4 -7 -20 28 -29 120 -32 41
-1 60 -6 60 -15 0 -16 26 -33 38 -25 5 3 13 0 17 -6 4 -7 19 -13 33 -15 15 -1
30 -6 34 -9 3 -4 11 -7 17 -7 6 0 5 4 -3 9 -9 6 -10 11 -2 15 6 4 11 27 11 52
0 24 4 44 8 44 5 0 17 72 27 160 10 88 22 160 27 160 4 0 8 18 8 40 0 27 4 40
13 40 11 0 15 29 20 117 4 66 11 119 17 121 5 2 10 21 10 43 0 21 5 39 10 39
6 0 10 33 10 80 0 62 3 80 14 80 10 0 16 22 21 80 4 44 11 80 15 80 4 0 11 36
15 80 4 44 11 80 16 80 5 0 9 18 9 40 0 22 4 40 8 40 5 0 17 72 27 160 10 88
22 160 27 160 4 0 8 18 8 40 0 27 4 40 13 40 11 0 15 29 20 117 4 66 11 119
17 121 5 2 10 21 10 43 0 21 5 39 10 39 6 0 10 33 10 80 0 60 3 80 14 80 9 0
17 32 26 120 7 66 17 120 21 120 5 0 9 18 9 40 0 22 5 40 10 40 6 0 10 18 10
40 0 22 4 40 8 40 5 0 17 72 27 160 10 88 22 160 27 160 4 0 8 18 8 40 0 36
-2 40 -25 40 -23 0 -25 4 -25 46 0 33 3 43 13 38 7 -5 6 0 -3 11 -8 10 -10 16
-3 12 6 -4 14 -3 17 2 4 5 -1 11 -9 13 -13 2 -12 6 5 16 19 11 20 10 16 -13
-3 -15 0 -25 7 -25 7 0 6 -4 -3 -10 -9 -6 -10 -10 -3 -10 6 0 15 5 18 10 3 6
11 10 16 10 6 0 7 -5 3 -12 -4 -6 -3 -8 4 -4 6 3 12 1 15 -6 2 -7 2 -2 0 12
-3 14 -9 30 -15 35 -8 7 -9 6 -3 -4 5 -9 3 -12 -4 -10 -7 3 -13 9 -13 14 0 24
-20 35 -42 23 -19 -10 -20 -10 -7 6 8 9 11 19 7 23 -3 3 -6 0 -6 -7 0 -16 -15
-3 -15 13 0 7 -11 11 -23 10 -13 -2 -21 1 -17 7 3 6 2 10 -3 10 -17 0 -22 -13
-11 -27 9 -10 15 -11 26 -2 7 7 16 9 20 5 3 -3 1 -6 -6 -6 -7 0 -10 -4 -7 -9
7 -10 -13 -9 -31 2 -6 4 -13 1 -16 -5 -3 -7 -4 -2 -4 12 1 14 8 31 17 38 13
12 13 13 -2 8 -10 -3 -17 -1 -15 3 1 5 -1 10 -5 10 -4 1 -18 11 -31 24 -35 33
-133 108 -207 158 -35 24 -71 50 -80 58 -8 8 -37 29 -65 47 -27 18 -61 42 -75
53 -13 11 -28 17 -32 15 -4 -3 -8 -1 -8 4 0 17 -632 435 -657 435 -7 0 -13 4
-13 8 0 12 -427 268 -685 411 -214 119 -301 165 -610 318 l-320 158 -465 41
c-751 67 -1074 92 -1735 136 -357 23 -932 55 -1008 55 l-70 0 7 40 c8 49 -10
55 -19 6 -6 -32 -9 -33 -50 -32 -24 0 -41 4 -39 8 3 4 -7 8 -21 8 -14 0 -24 4
-20 10 3 5 11 7 18 4 7 -2 30 5 52 17 25 13 30 19 15 15 -14 -4 -38 -9 -55
-12 -27 -4 -27 -3 -7 5 17 8 22 18 22 51 0 38 2 40 30 40 l30 0 0 98 c0 53 5
143 12 200 10 88 14 102 30 102 14 0 18 8 18 40 0 22 5 40 10 40 6 0 10 33 10
80 0 53 4 80 11 80 8 0 10 18 6 60 -9 82 2 180 19 180 10 0 14 13 14 40 0 29
4 40 15 40 12 0 15 16 15 80 0 47 4 80 10 80 6 0 10 47 10 120 0 100 3 120 15
120 11 0 15 11 15 40 0 29 4 40 15 40 11 0 15 -11 15 -40 0 -22 5 -40 10 -40
6 0 10 18 10 40 0 23 -5 40 -11 40 -8 0 -10 28 -5 100 3 55 9 145 12 200 l7
100 28 0 29 0 0 80 c0 53 4 80 11 80 8 0 10 18 6 60 -4 33 -4 87 0 120 5 50 9
60 24 60 15 0 19 8 19 40 0 22 5 40 10 40 6 0 10 33 10 80 0 53 4 80 11 80 8
0 10 18 6 60 -9 82 2 180 19 180 10 0 14 13 14 40 0 29 4 40 15 40 11 0 15
-11 15 -40 0 -22 5 -40 10 -40 6 0 10 18 10 40 0 22 -4 40 -10 40 -5 0 -10 18
-10 40 0 37 7 45 33 41 4 0 7 3 7 8 0 5 15 12 33 15 28 6 30 8 14 17 -10 6
-21 8 -24 5 -4 -3 0 -6 8 -7 8 0 1 -5 -16 -10 -20 -6 -32 -5 -38 4 -6 8 -7 6
-3 -5 4 -14 0 -18 -22 -18 -21 0 -24 2 -12 10 13 8 13 10 -2 10 -9 0 -20 -5
-24 -11 -3 -6 -15 -8 -26 -6 -19 5 -74 -3 -413 -64 -398 -71 -909 -173 -1400
-279 -366 -79 -428 -94 -980 -231 -264 -66 -500 -125 -525 -131 -25 -6 -54
-14 -65 -19 -42 -16 -125 -36 -120 -29 3 5 0 12 -6 16 -8 4 -9 3 -5 -4 8 -13
-24 -32 -53 -32 -13 0 -19 6 -18 19 1 16 6 17 31 10 23 -7 27 -6 18 3 -15 15
-16 88 -2 88 6 0 10 60 10 160 0 100 4 160 10 160 6 0 10 73 10 200 0 197 0
200 21 200 20 0 21 3 14 80 -6 70 -5 80 9 80 12 0 16 -10 16 -40 0 -22 5 -40
10 -40 6 0 10 18 10 40 0 22 -4 40 -10 40 -6 0 -10 47 -10 120 0 77 4 120 11
120 6 0 9 28 7 78 -1 42 -2 132 0 200 2 117 3 122 23 122 20 0 21 3 14 80 -6
70 -5 80 9 80 12 0 16 -10 16 -40 0 -22 5 -40 10 -40 6 0 10 18 10 40 0 22 -4
40 -10 40 -6 0 -10 47 -10 120 0 66 4 120 9 120 4 0 8 94 8 210 l-1 209 27 21
c15 12 27 19 27 16 0 -3 9 3 21 15 15 15 28 19 47 15 21 -5 23 -4 12 4 -13 9
-12 13 7 28 47 37 108 77 116 74 4 -1 7 3 7 9 0 5 5 7 10 4 6 -3 10 -2 10 4 0
5 17 20 38 32 20 13 39 26 42 29 18 21 253 169 261 164 5 -3 8 -1 7 5 -2 6 7
17 19 24 12 6 133 82 270 168 560 353 986 591 1613 903 448 223 722 351 1096
511 1947 834 4105 1390 6369 1639 398 44 374 36 190 62 -508 72 -1148 130
-1910 175 -169 10 -1492 20 -1655 13z m-6651 -3941 c-12 -15 -12 -16 5 -9 19
7 19 6 1 -14 -12 -13 -25 -18 -38 -14 -12 4 -17 2 -13 -4 4 -6 -2 -16 -13 -21
-36 -20 -18 17 25 49 45 34 52 37 33 13z m-135 -111 c3 -5 -1 -9 -9 -9 -8 0
-12 4 -9 9 3 4 7 8 9 8 2 0 6 -4 9 -8z m-39 -22 c3 -5 2 -10 -4 -10 -5 0 -13
5 -16 10 -3 6 -2 10 4 10 5 0 13 -4 16 -10z m-108 -75 c0 -8 -4 -12 -9 -9 -5
3 -6 10 -3 15 9 13 12 11 12 -6z m31 -2235 c8 0 13 -3 9 -6 -10 -10 -48 7 -40
19 5 8 8 8 11 -1 2 -7 11 -12 20 -12z m3009 -2226 c-3 -3 -12 -4 -19 -1 -8 3
-5 6 6 6 11 1 17 -2 13 -5z m6126 -1851 c4 -7 14 -13 22 -13 8 0 16 -4 20 -9
3 -6 -4 -8 -17 -6 -13 3 -25 10 -27 16 -2 6 -12 3 -25 -8 -21 -18 -21 -18 -4
3 17 19 17 21 0 39 -16 18 -16 18 3 4 11 -7 24 -20 28 -26z m68 -80 c13 -16
12 -17 -3 -4 -17 13 -22 21 -14 21 2 0 10 -8 17 -17z m-16 -13 c3 -5 1 -10 -4
-10 -6 0 -11 5 -11 10 0 6 2 10 4 10 3 0 8 -4 11 -10z m100 -9 c-9 -8 -36 -10
-30 -2 2 4 11 8 20 8 8 0 13 -3 10 -6z m-65 -451 c0 -29 -4 -40 -15 -40 -11 0
-15 11 -15 40 0 29 4 40 15 40 11 0 15 -11 15 -40z m127 -262 c-2 -13 -4 -3
-4 22 0 25 2 35 4 23 2 -13 2 -33 0 -45z m-207 -138 c0 -29 -4 -40 -15 -40
-11 0 -15 11 -15 40 0 29 4 40 15 40 11 0 15 -11 15 -40z m-160 -880 c0 -29
-4 -40 -15 -40 -11 0 -15 11 -15 40 0 29 4 40 15 40 11 0 15 -11 15 -40z m127
-262 c-2 -13 -4 -3 -4 22 0 25 2 35 4 23 2 -13 2 -33 0 -45z m-267 -618 c0
-22 -4 -40 -10 -40 -5 0 -10 18 -10 40 0 22 5 40 10 40 6 0 10 -18 10 -40z
m-100 -400 c0 -29 -4 -40 -15 -40 -11 0 -15 11 -15 40 0 29 4 40 15 40 11 0
15 -11 15 -40z m-53 -221 c-22 -11 -41 -18 -44 -16 -2 3 5 8 16 12 12 3 19 10
17 14 -3 4 7 8 22 8 25 2 24 0 -11 -18z m185 -31 c2 -20 0 -34 -4 -32 -4 3 -8
24 -7 47 1 47 6 41 11 -15z m-225 36 c-3 -3 -12 -4 -19 -1 -8 3 -5 6 6 6 11 1
17 -2 13 -5z m73 -14 c0 -5 -7 -10 -16 -10 -8 0 -12 5 -9 10 3 6 10 10 16 10
5 0 9 -4 9 -10z m2565 -7131 c11 -16 1 -19 -13 -3 -7 8 -8 14 -3 14 5 0 13 -5
16 -11z m112 -64 c0 -8 -4 -12 -9 -9 -5 3 -6 10 -3 15 9 13 12 11 12 -6z
m-6538 -1955 c11 -24 11 -24 -3 -6 -9 11 -16 24 -16 30 0 12 5 7 19 -24z m61
-210 c0 -16 -4 -30 -10 -30 -5 0 -10 14 -10 30 0 17 5 30 10 30 6 0 10 -13 10
-30z m-880 -534 c0 -2 -8 -10 -17 -17 -16 -13 -17 -12 -4 4 13 16 21 21 21 13z
m-73 -13 c-4 -3 -1 -13 6 -22 11 -14 10 -14 -5 -2 -16 12 -16 31 -1 31 4 0 3
-3 0 -7z m139 -77 c20 -21 17 -28 -6 -14 -11 7 -20 16 -20 20 0 12 10 9 26 -6z
m-20 -29 c5 -9 4 -9 -7 1 -7 6 -17 12 -22 12 -4 0 -5 -6 -1 -12 4 -7 3 -9 -1
-5 -5 4 -10 14 -11 22 -2 11 2 12 16 5 11 -6 22 -16 26 -23z m22 -34 c-8 -10
-14 -10 -24 -2 -18 15 -18 15 11 15 19 0 22 -3 13 -13z m30 -28 c-3 -3 -9 2
-12 12 -6 14 -5 15 5 6 7 -7 10 -15 7 -18z m37 -35 c3 -5 1 -10 -4 -10 -6 0
-11 5 -11 10 0 6 2 10 4 10 3 0 8 -4 11 -10z m89 -16 c4 -12 2 -15 -9 -10 -8
3 -15 0 -15 -7 0 -7 -4 -6 -10 3 -8 13 -13 13 -30 2 -27 -17 -47 -5 -23 14 25
19 79 18 87 -2z m-20 -43 c4 -5 3 -17 0 -26 -6 -15 -8 -14 -25 1 -15 14 -17
19 -7 26 17 10 26 10 32 -1z m-16257 -1443 c-3 -8 -6 -5 -6 6 -1 11 2 17 5 13
3 -3 4 -12 1 -19z m-5 -90 c-7 -7 -12 -8 -12 -2 0 14 12 26 19 19 2 -3 -1 -11
-7 -17z m-17 -63 c-1 -5 -4 -30 -9 -54 -6 -32 -11 -40 -18 -30 -7 10 -8 8 -3
-8 15 -54 -218 -834 -412 -1378 -91 -254 -242 -646 -254 -659 -5 -6 -9 11 -9
41 0 58 -23 282 -46 453 -41 309 -124 755 -214 1160 -22 101 -42 196 -44 210
-2 14 -6 32 -9 40 -3 8 -10 36 -16 61 -6 26 -13 54 -17 63 -5 13 1 16 40 16
25 0 46 5 46 10 0 6 47 10 120 10 73 0 120 4 120 10 0 6 33 10 80 10 47 0 80
4 80 10 0 6 33 10 80 10 47 0 80 4 80 10 0 6 33 10 80 10 44 0 80 4 80 9 0 4
55 8 123 7 74 -1 122 -5 122 -11z m2358 -2065 c-3 -12 -8 -19 -11 -16 -5 6 5
36 12 36 2 0 2 -9 -1 -20z m244 -82 c-3 -8 -6 -5 -6 6 -1 11 2 17 5 13 3 -3 4
-12 1 -19z m13 -37 c-6 -12 -8 -21 -4 -21 3 0 1 -7 -7 -16 -14 -17 -21 -10
-33 36 -6 19 -5 21 3 10 7 -10 11 -11 11 -3 0 7 7 10 15 7 8 -4 15 -1 15 7 0
7 3 10 6 7 3 -4 1 -16 -6 -27z m-54 -56 c-2 -25 1 -48 7 -52 5 -3 7 -1 3 5 -3
5 0 13 6 16 10 5 10 7 1 12 -7 3 -13 10 -13 16 0 6 6 6 15 -2 14 -12 16 -43 3
-56 -4 -3 -4 -12 -1 -20 3 -8 0 -14 -6 -14 -6 0 -10 -10 -9 -22 3 -33 -63
-278 -73 -272 -5 3 -7 -1 -4 -8 3 -7 -1 -35 -8 -62 l-13 -49 -12 67 c-7 38
-11 71 -8 74 3 3 1 11 -5 19 -6 7 -12 37 -13 67 0 30 -5 49 -9 42 -5 -7 -7 -3
-5 9 1 11 -2 26 -7 34 -6 10 -4 16 4 19 10 3 10 6 2 11 -12 8 -22 40 -25 78 0
12 -4 25 -8 29 -5 4 -8 12 -8 18 0 6 4 5 8 -2 5 -8 9 5 9 33 0 25 -4 45 -8 45
-5 0 -6 -8 -3 -17 5 -15 4 -15 -4 -3 -18 25 -3 30 94 30 l94 0 -4 -45z m1816
-11409 c7 4 8 2 4 -5 -4 -6 -11 -9 -16 -6 -8 5 -25 -24 -21 -38 1 -5 -3 -6 -8
-3 -6 4 -3 18 7 36 9 16 19 25 20 20 2 -6 9 -7 14 -4z m-8 -68 c-3 -4 -11 -8
-17 -7 -9 0 -9 2 0 5 7 3 9 13 6 22 -4 14 -3 14 5 2 6 -8 8 -18 6 -22z m-5585
-1531 c0 -8 -2 -8 -6 1 -4 10 -10 9 -27 -5 l-21 -18 19 22 c19 23 37 22 35 0z
m-51 -72 c-3 -3 -9 2 -12 12 -6 14 -5 15 5 6 7 -7 10 -15 7 -18z m-22 -45 c0
-12 -4 -16 -9 -11 -5 5 -6 14 -3 20 10 15 12 14 12 -9z m-63 -21 c-8 -8 -13
-7 -18 2 -5 8 -4 10 3 5 7 -4 12 -2 12 5 0 7 3 9 7 6 4 -4 2 -12 -4 -18z m-99
-87 c3 -5 -1 -9 -9 -9 -8 0 -12 4 -9 9 3 4 7 8 9 8 2 0 6 -4 9 -8z"/>
<path d="M50105 62220 c-3 -5 -1 -10 4 -10 6 0 11 5 11 10 0 6 -2 10 -4 10 -3
0 -8 -4 -11 -10z"/>
<path d="M54100 42200 c0 -5 5 -10 11 -10 5 0 7 5 4 10 -3 6 -8 10 -11 10 -2
0 -4 -4 -4 -10z"/>
<path d="M50539 62513 c-13 -16 -12 -17 4 -4 16 13 21 21 13 21 -2 0 -10 -8
-17 -17z"/>
<path d="M50445 62444 c-11 -8 -25 -12 -31 -10 -7 3 -15 -2 -18 -10 -5 -12 0
-12 31 1 40 17 49 23 42 29 -2 2 -13 -2 -24 -10z"/>
<path d="M50360 62395 c-7 -8 -18 -15 -24 -15 -7 0 -21 -7 -32 -15 -15 -12
-11 -12 23 2 23 8 44 22 47 29 7 18 2 18 -14 -1z"/>
<path d="M50370 62359 c0 -5 5 -7 10 -4 6 3 10 8 10 11 0 2 -4 4 -10 4 -5 0
-10 -5 -10 -11z"/>
<path d="M50206 62289 c-16 -15 -34 -25 -39 -22 -6 3 -7 1 -3 -6 6 -9 11 -9
22 0 11 9 18 9 26 1 19 -19 25 -14 25 23 0 19 -1 35 -1 34 -1 -1 -14 -14 -30
-30z m21 -14 c0 -8 -4 -12 -9 -9 -5 3 -6 10 -3 15 9 13 12 11 12 -6z"/>
<path d="M50243 61570 c0 -25 2 -35 4 -22 2 12 2 32 0 45 -2 12 -4 2 -4 -23z"/>
<path d="M50163 60770 c0 -25 2 -35 4 -22 2 12 2 32 0 45 -2 12 -4 2 -4 -23z"/>
<path d="M53603 60210 c0 -25 2 -35 4 -22 2 12 2 32 0 45 -2 12 -4 2 -4 -23z"/>
<path d="M50082 59963 c-2 -44 1 -51 14 -46 9 3 11 8 6 12 -6 3 -12 24 -15 46
-3 36 -4 35 -5 -12z"/>
<path d="M50115 59900 c3 -5 12 -7 20 -3 21 7 19 13 -6 13 -11 0 -18 -4 -14
-10z"/>
<path d="M50090 59870 c-13 -8 -13 -10 2 -10 9 0 20 5 23 10 8 13 -5 13 -25 0z"/>
<path d="M53363 58850 c0 -25 2 -35 4 -22 2 12 2 32 0 45 -2 12 -4 2 -4 -23z"/>
<path d="M53053 57563 c9 -2 25 -2 35 0 9 3 1 5 -18 5 -19 0 -27 -2 -17 -5z"/>
<path d="M59394 55445 c-8 -19 13 -45 34 -45 12 0 11 4 -6 16 -12 8 -22 20
-22 26 0 6 11 1 26 -13 24 -22 24 -24 7 -37 -17 -13 -16 -13 6 -7 14 4 21 3
18 -2 -4 -5 0 -10 8 -10 8 0 16 6 19 13 3 9 -1 11 -11 7 -10 -4 -14 -2 -10 4
4 6 -9 23 -28 37 -30 23 -36 25 -41 11z"/>
<path d="M59385 55400 c10 -11 20 -20 23 -20 3 0 -3 9 -13 20 -10 11 -20 20
-23 20 -3 0 3 -9 13 -20z"/>
<path d="M59524 55353 c2 -10 6 -17 10 -16 15 3 16 11 2 22 -12 10 -14 9 -12
-6z"/>
<path d="M59566 55317 c3 -10 9 -15 12 -12 3 3 0 11 -7 18 -10 9 -11 8 -5 -6z"/>
<path d="M59696 55177 c3 -10 9 -15 12 -12 3 3 0 11 -7 18 -10 9 -11 8 -5 -6z"/>
<path d="M59860 55096 c0 -2 8 -10 18 -17 15 -13 16 -12 3 4 -13 16 -21 21
-21 13z"/>
<path d="M58900 52306 c0 -2 7 -9 15 -16 13 -11 14 -10 9 4 -5 14 -24 23 -24
12z"/>
<path d="M58794 52288 c-4 -7 -4 -10 1 -6 4 4 16 3 26 -3 11 -5 19 -7 19 -5 0
3 -9 10 -19 16 -15 7 -22 7 -27 -2z"/>
<path d="M58864 52269 c-4 -8 -3 -9 5 -5 6 4 19 2 28 -6 14 -11 15 -11 11 2
-6 19 -34 25 -44 9z"/>
<path d="M54816 43093 c-11 -11 -7 -20 9 -20 8 0 15 4 15 8 0 11 -16 20 -24
12z"/>
<path d="M54800 42916 c0 -8 4 -17 9 -20 5 -4 7 3 4 14 -6 23 -13 26 -13 6z"/>
<path d="M54620 42825 c-10 -12 -10 -15 4 -15 9 0 16 7 16 15 0 8 -2 15 -4 15
-2 0 -9 -7 -16 -15z"/>
<path d="M54881 42804 c0 -11 3 -14 6 -6 3 7 2 16 -1 19 -3 4 -6 -2 -5 -13z"/>
<path d="M54727 42803 c-4 -3 -7 -22 -6 -42 0 -32 1 -33 9 -13 5 12 16 25 24
28 26 10 28 34 2 34 -12 0 -26 -3 -29 -7z"/>
<path d="M54894 42756 c0 -13 4 -22 9 -19 10 6 9 31 -2 37 -5 3 -8 -5 -7 -18z"/>
<path d="M54640 42705 c0 -22 3 -24 19 -16 31 17 34 41 6 41 -20 0 -25 -5 -25
-25z"/>
<path d="M54240 42234 c0 -14 3 -14 15 -4 8 7 15 14 15 16 0 2 -7 4 -15 4 -8
0 -15 -7 -15 -16z"/>
<path d="M54194 42155 c36 -19 42 -19 26 0 -7 8 -22 15 -34 15 -18 0 -17 -2 8
-15z"/>
<path d="M54275 42001 c-3 -5 -1 -12 5 -16 5 -3 10 -3 10 1 0 3 8 0 18 -7 14
-11 13 -10 -2 9 -22 25 -23 25 -31 13z"/>
<path d="M54354 41906 c1 -8 5 -18 8 -22 4 -3 5 1 4 10 -1 8 -5 18 -8 22 -4 3
-5 -1 -4 -10z"/>
<path d="M32766 27894 c-9 -24 -8 -27 12 -20 14 5 14 4 -2 -9 -21 -16 -10 -21
13 -6 12 7 12 13 3 24 -7 7 -9 17 -5 20 3 4 2 7 -4 7 -6 0 -14 -7 -17 -16z"/>
<path d="M32728 27884 c-16 -8 -28 -19 -28 -25 0 -6 -4 -7 -10 -4 -5 3 -10 -1
-10 -9 0 -10 -6 -13 -17 -10 -13 4 -14 3 -5 -3 9 -7 6 -12 -13 -21 -19 -9 -25
-9 -25 0 0 7 -6 3 -14 -8 -22 -29 -1 -42 27 -16 27 26 39 28 31 7 -5 -13 -2
-13 23 2 24 13 29 22 27 45 -3 27 -2 28 19 17 12 -6 19 -8 15 -4 -4 4 -3 16 3
26 12 22 12 22 -23 3z m-25 -54 c-3 -11 -12 -20 -21 -20 -13 0 -12 3 3 20 10
11 19 20 21 20 1 0 0 -9 -3 -20z m-83 -40 c0 -5 -5 -10 -11 -10 -5 0 -7 5 -4
10 3 6 8 10 11 10 2 0 4 -4 4 -10z"/>
<path d="M32695 27783 c-12 -10 -14 -14 -5 -10 9 2 24 -1 34 -9 11 -7 24 -10
30 -7 6 4 0 10 -14 13 -14 4 -24 12 -22 18 3 15 1 15 -23 -5z"/>
<path d="M32536 27761 c-4 -5 -2 -12 3 -15 5 -4 12 -2 15 3 4 5 2 12 -3 15 -5
4 -12 2 -15 -3z"/>
<path d="M32775 27757 c-15 -8 -14 -11 7 -25 22 -16 65 -18 80 -4 4 4 -4 8
-17 9 -47 4 -55 6 -55 16 0 5 7 6 15 3 38 -15 50 -18 36 -8 -11 8 -11 10 0 14
8 3 0 5 -18 5 -17 0 -39 -5 -48 -10z"/>
<path d="M32724 27720 c0 -20 4 -26 14 -23 11 5 11 7 0 14 -11 8 -11 10 0 18
11 7 11 9 0 14 -10 3 -14 -3 -14 -23z"/>
<path d="M32494 27733 c12 -22 43 -34 43 -18 0 8 -4 12 -9 9 -5 -3 -16 0 -25
8 -12 9 -15 9 -9 1z"/>
<path d="M32446 27722 c-3 -5 1 -9 9 -9 8 0 12 4 9 9 -3 4 -7 8 -9 8 -2 0 -6
-4 -9 -8z"/>
<path d="M32477 27687 c-3 -8 3 -14 16 -15 12 0 17 2 12 6 -6 4 -13 11 -16 15
-4 4 -9 2 -12 -6z"/>
<path d="M32495 27650 c-4 -6 -11 -7 -17 -4 -7 4 -8 2 -4 -5 6 -9 11 -9 22 0
14 11 18 19 10 19 -3 0 -8 -5 -11 -10z"/>
<path d="M42480 26730 c0 -17 7 -20 40 -20 33 0 40 3 40 20 0 17 -7 20 -40 20
-33 0 -40 -3 -40 -20z"/>
<path d="M42120 26728 c6 -7 10 -22 10 -34 0 -13 5 -26 10 -29 16 -10 1 47
-16 63 -9 7 -10 8 -4 0z"/>
<path d="M42097 26714 c-11 -11 -8 -26 3 -19 6 3 10 1 10 -6 0 -7 3 -10 6 -6
3 3 2 13 -3 22 -5 8 -12 12 -16 9z"/>
<path d="M42800 26650 c0 -17 7 -20 40 -20 33 0 40 3 40 20 0 17 -7 20 -40 20
-33 0 -40 -3 -40 -20z"/>
<path d="M43120 26570 c0 -17 7 -20 40 -20 33 0 40 3 40 20 0 17 -7 20 -40 20
-33 0 -40 -3 -40 -20z"/>
<path d="M43298 26483 c12 -2 32 -2 45 0 12 2 2 4 -23 4 -25 0 -35 -2 -22 -4z"/>
<path d="M43373 26398 c-11 -19 -14 -46 -4 -52 4 -3 21 9 37 26 16 17 22 27
14 22 -8 -4 -23 -10 -34 -11 -16 -3 -17 -1 -6 12 7 8 10 15 7 15 -3 0 -9 -6
-14 -12z m17 -33 c-7 -9 -15 -13 -19 -10 -3 3 1 10 9 15 21 14 24 12 10 -5z"/>
<path d="M43332 26308 c2 -9 -7 -12 -27 -11 -18 2 -24 0 -15 -5 8 -4 15 -17
14 -29 -1 -12 3 -20 8 -17 5 3 7 13 4 21 -5 11 -2 13 11 9 10 -4 14 -4 10 0
-4 4 -2 13 4 20 7 8 7 14 -1 19 -6 4 -9 1 -8 -7z"/>
<path d="M43229 26133 c-13 -16 -12 -17 4 -4 16 13 21 21 13 21 -2 0 -10 -8
-17 -17z"/>
<path d="M36343 25096 c1 -6 -6 -10 -15 -10 -10 1 -15 -2 -12 -7 3 -5 1 -9 -4
-9 -5 0 -21 -10 -36 -23 -28 -24 -28 -64 0 -53 7 3 16 1 19 -4 3 -4 -1 -11 -7
-13 -8 -3 -6 -6 5 -6 9 -1 18 2 18 7 6 33 5 51 -2 46 -5 -3 -14 -2 -19 1 -15
9 31 44 49 37 9 -3 12 -1 7 6 -7 12 1 15 36 15 10 0 15 4 12 8 -3 5 -10 7 -15
4 -5 -4 -9 -2 -9 3 0 5 -6 9 -14 9 -8 0 -14 -5 -13 -11z m-50 -80 c19 -15 24
-31 5 -19 -7 4 -17 8 -22 8 -5 0 -11 6 -13 13 -6 16 7 15 30 -2z"/>
<path d="M36370 25060 c-9 -6 -10 -10 -3 -10 6 0 15 5 18 10 8 12 4 12 -15 0z"/>
<path d="M36450 25046 c0 -2 7 -9 15 -16 12 -10 15 -10 15 4 0 9 -7 16 -15 16
-8 0 -15 -2 -15 -4z"/>
<path d="M36219 24983 c-13 -17 -13 -17 6 -3 11 8 22 16 24 17 2 2 0 3 -6 3
-6 0 -17 -8 -24 -17z"/>
<path d="M36185 24940 c-16 -17 -16 -20 -3 -15 9 4 19 13 22 21 7 19 2 18 -19
-6z"/>
<path d="M36203 24925 c-10 -10 -9 -14 2 -19 17 -6 26 5 17 21 -5 8 -11 7 -19
-2z"/>
<path d="M36500 24874 c0 -8 5 -12 10 -9 6 4 8 11 5 16 -9 14 -15 11 -15 -7z"/>
<path d="M36540 24880 c-13 -9 -13 -10 0 -10 11 -1 10 -4 -4 -15 -13 -10 -15
-15 -6 -15 17 0 4 -13 -16 -16 -11 -2 -14 3 -9 14 5 13 3 14 -5 5 -9 -8 -9
-16 -1 -30 6 -10 11 -13 11 -5 0 7 4 11 9 8 4 -3 16 3 26 14 10 11 14 20 9 20
-5 0 -2 5 6 10 10 6 11 13 5 19 -7 7 -16 7 -25 1z"/>
<path d="M36585 24873 c1 -10 8 -17 15 -15 19 4 56 32 44 32 -5 0 -15 -5 -22
-12 -8 -8 -15 -8 -26 1 -12 10 -14 9 -11 -6z"/>
<path d="M36123 24845 c-9 -10 -10 -16 -2 -21 15 -9 36 13 24 25 -6 6 -15 4
-22 -4z"/>
<path d="M36414 24788 c16 -25 36 -42 21 -19 -3 6 3 15 12 21 17 11 17 11 -1
6 -10 -4 -26 -1 -34 6 -12 10 -11 6 2 -14z"/>
<path d="M36350 24775 c-19 -22 -8 -25 13 -3 9 10 13 18 8 18 -5 0 -14 -7 -21
-15z"/>
<path d="M36379 24743 c-13 -16 -12 -17 4 -4 16 13 21 21 13 21 -2 0 -10 -8
-17 -17z"/>
<path d="M35882 24604 c-7 -8 -8 -14 -3 -14 10 0 25 19 20 25 -2 1 -10 -3 -17
-11z"/>
<path d="M24420 19263 c-576 -56 -1042 -273 -1402 -651 -288 -304 -490 -702
-578 -1142 -16 -80 -34 -192 -40 -250 -15 -135 -15 -457 -1 -585 117 -1017
728 -1731 1661 -1939 518 -115 1126 -73 1572 109 733 300 1208 972 1309 1855
18 156 15 481 -5 630 -88 650 -393 1198 -860 1547 -312 233 -665 369 -1085
418 -113 14 -467 19 -571 8z m572 -782 c291 -58 494 -164 694 -365 124 -124
197 -228 274 -388 195 -410 223 -921 75 -1373 -170 -519 -536 -839 -1065 -929
-200 -34 -459 -31 -651 9 -626 131 -1021 611 -1099 1337 -26 251 3 521 85 767
77 230 191 417 350 576 217 218 469 337 815 385 111 15 401 5 522 -19z"/>
<path d="M49560 19243 c-518 -36 -967 -207 -1221 -464 -146 -149 -234 -320
-274 -534 -24 -127 -16 -388 15 -494 107 -373 422 -600 1051 -760 86 -22 338
-76 560 -121 603 -120 781 -170 1004 -280 194 -96 319 -209 390 -355 52 -105
69 -182 69 -315 1 -520 -380 -842 -1092 -925 -233 -27 -554 -16 -729 26 -173
41 -357 105 -476 166 -242 122 -453 303 -575 493 -30 47 -58 89 -62 93 -6 6
-280 -121 -299 -139 -19 -17 132 -242 239 -356 229 -245 556 -432 924 -529
240 -62 409 -83 681 -82 891 3 1506 323 1679 873 55 173 70 383 41 574 -52
347 -253 601 -610 770 -239 114 -502 186 -1080 296 -608 116 -838 180 -1044
291 -254 137 -373 336 -357 599 26 444 380 735 1016 836 156 25 532 25 703 0
283 -41 497 -120 668 -247 81 -60 215 -198 265 -273 27 -41 42 -55 53 -51 9 3
73 40 144 82 86 51 125 79 119 87 -5 6 -37 49 -72 96 -89 119 -258 283 -368
359 -248 168 -529 255 -912 281 -135 9 -346 11 -450 3z"/>
<path d="M19000 16960 l0 -2230 1560 0 1560 0 0 390 0 390 -1145 0 -1145 0 0
1840 0 1840 -415 0 -415 0 0 -2230z"/>
<path d="M27580 16960 l0 -2230 420 0 420 0 0 745 0 745 403 0 403 0 649 -745
649 -745 498 0 498 0 0 33 c0 28 -45 82 -368 446 -864 975 -970 1096 -968
1099 2 1 54 16 115 33 584 156 931 574 992 1195 79 802 -398 1453 -1182 1613
-187 39 -272 41 -1415 41 l-1114 0 0 -2230z m2265 1436 c185 -28 309 -90 425
-212 79 -83 135 -186 167 -304 28 -101 23 -300 -8 -405 -76 -250 -267 -421
-529 -475 -89 -18 -140 -20 -787 -20 l-693 0 0 715 0 715 668 0 c515 0 687 -3
757 -14z"/>
<path d="M31850 16960 l0 -2230 1665 0 1665 0 0 415 0 415 -1245 0 -1245 0 0
500 0 500 1203 2 1202 3 0 390 0 390 -1202 3 -1203 2 0 515 0 515 1245 0 1245
0 0 405 0 405 -1665 0 -1665 0 0 -2230z"/>
<path d="M42730 16960 l0 -2230 165 0 165 0 0 2230 0 2230 -165 0 -165 0 0
-2230z"/>
<path d="M44040 16960 l0 -2230 175 0 175 0 0 770 0 769 898 4 c976 3 960 3
1167 62 227 66 402 170 570 339 158 159 258 320 333 537 62 177 77 280 77 524
-1 188 -4 234 -23 320 -101 461 -349 794 -734 987 -105 52 -194 83 -338 116
l-115 26 -1092 3 -1093 4 0 -2231z m2166 1895 c265 -46 485 -173 647 -375 69
-87 150 -237 186 -345 82 -251 83 -563 1 -807 -144 -431 -480 -695 -935 -738
-65 -6 -441 -10 -912 -10 l-803 0 0 1145 0 1145 864 0 c732 0 877 -2 952 -15z"/>
<path d="M52232 17668 l3 -1523 23 -115 c139 -698 621 -1180 1324 -1322 99
-20 141 -23 348 -23 216 1 245 3 361 28 165 35 288 76 424 142 473 230 782
644 887 1188 22 111 22 120 25 1630 l4 1517 -165 0 -165 0 -4 -1477 c-3 -1457
-4 -1480 -25 -1588 -114 -593 -493 -984 -1072 -1106 -137 -29 -379 -32 -517
-6 -254 47 -492 158 -661 310 -233 210 -370 459 -434 792 -21 109 -22 128 -25
1593 l-4 1482 -165 0 -164 0 2 -1522z"/>
<path d="M56570 16960 l0 -2230 175 0 175 0 2 1978 3 1977 41 -65 c23 -36 111
-171 196 -300 228 -346 610 -927 812 -1235 98 -148 287 -435 419 -637 l242
-368 57 0 56 0 178 273 c97 149 248 380 334 512 87 132 344 526 572 875 228
349 460 705 516 790 l102 155 0 -1977 0 -1978 170 0 170 0 0 2230 0 2230 -212
-1 -213 0 -305 -472 c-277 -430 -633 -979 -1173 -1810 -110 -169 -203 -304
-207 -300 -8 8 -67 97 -575 873 -150 228 -433 660 -630 960 -196 300 -387 591
-424 647 l-66 103 -207 0 -208 0 0 -2230z"/>
<path d="M35840 16955 l0 -2225 420 0 420 0 2 1612 3 1613 146 -200 c139 -191
222 -304 864 -1180 153 -209 305 -417 338 -462 l61 -83 85 0 86 0 720 959 720
958 3 -1608 2 -1609 420 0 420 0 0 2225 0 2225 -481 -2 -482 -3 -106 -145
c-58 -80 -371 -509 -695 -953 -323 -445 -589 -807 -591 -805 -1 2 -146 201
-322 443 -176 242 -467 643 -648 890 -181 248 -349 478 -374 513 l-45 62 -483
0 -483 0 0 -2225z"/>
</g>
</svg>
